<?xml version="1.0" encoding="iso-8859-1"?>
<!-- Generator: Adobe Illustrator 16.0.3, SVG Export Plug-In . SVG Version: 6.00 Build 0)  -->
<!DOCTYPE svg PUBLIC "-//W3C//DTD SVG 1.1//EN" "http://www.w3.org/Graphics/SVG/1.1/DTD/svg11.dtd">
<svg version="1.1" id="Capa_1" xmlns="http://www.w3.org/2000/svg" xmlns:xlink="http://www.w3.org/1999/xlink" x="0px" y="0px"
	 width="835px" height="191px" viewBox="0 0 835 191" style="enable-background:new 0 0 835 191;" xml:space="preserve">
<g>
	<g>
		<path style="fill-rule:evenodd;clip-rule:evenodd;fill:#FDFDFE;" d="M51,21c-3.466,1.445-7.085,2.607-10.367,4.391
			c-8.072,4.388-13.642,11.023-16.773,19.712C23.38,46.435,23.562,48.16,22,49c0-9.333,0-18.667,0-28C31.667,21,41.333,21,51,21z"/>
		<path style="fill-rule:evenodd;clip-rule:evenodd;" d="M271.13,87.632c-10.623-3.838-20.866-5.799-31.458-5.764
			c-1,0.004-2.008-0.042-2.997,0.073c-2.295,0.265-5.34,0.292-5.59,3.042c-0.251,2.757,2.823,2.715,4.837,3.201
			c8.244,1.994,16.699,3.121,24.755,5.867c3.135,1.068,6.271,2.282,9.172,3.862c11.322,6.168,12.309,17.192,2.305,25.442
			c-6.113,5.041-13.541,7.2-21.133,8.317c-17.801,2.619-35.514,2.065-53.008-2.591c-1.735-0.462-3.063-0.544-3.006-2.922
			c0.153-6.299,0.052-12.604,0.052-18.925c2.973-0.308,5.19,0.98,7.509,1.815c10.123,3.647,20.599,5.444,31.316,5.546
			c2.921,0.027,7.615,0.617,7.855-3.214c0.206-3.273-4.427-2.706-6.985-3.178c-8.51-1.567-17.094-2.755-25.303-5.63
			c-2.191-0.768-4.354-1.688-6.4-2.779c-10.662-5.686-12.138-15.996-3.492-24.614c5.28-5.261,12.067-7.579,19.137-9.058
			c16.394-3.43,32.803-2.379,49.195,0.151c2.258,0.349,3.423,1.224,3.312,3.884C270.965,75.803,271.13,81.462,271.13,87.632z"/>
		<path style="fill-rule:evenodd;clip-rule:evenodd;" d="M383.772,132.453c-11.006,0-21.795-0.065-32.582,0.049
			c-2.546,0.027-2.882-1.741-3.645-3.36c-4.384-9.307-11.574-15.675-20.766-20.036c-2.544-1.207-3.898-1.322-5.019,1.883
			c-2.192,6.271-4.975,12.336-7.438,18.516c-0.715,1.793-1.352,3.162-3.776,3.134c-10.638-0.123-21.279-0.053-31.872-0.053
			c-0.498-2.125,0.68-3.252,1.297-4.502c9.658-19.54,19.427-39.025,28.982-58.615c1.379-2.828,2.974-3.748,6.055-3.696
			c11.329,0.189,22.663,0.116,33.995,0.039c2.188-0.015,3.601,0.394,4.661,2.639c9.806,20.753,19.748,41.441,29.638,62.154
			C383.504,131.02,383.541,131.514,383.772,132.453z"/>
		<path style="fill-rule:evenodd;clip-rule:evenodd;" d="M415.45,65.566c12.659,0,25.324,0.208,37.976-0.115
			c4.341-0.11,5.366,1.271,5.057,5.299c-0.357,4.637-0.268,9.332-0.018,13.982c0.172,3.187-0.648,4.37-4.081,4.225
			c-6.817-0.289-13.661,0.08-20.482-0.158c-3.199-0.112-4.213,0.714-4.152,4.059c0.217,11.823-0.027,23.654,0.158,35.478
			c0.052,3.248-0.761,4.34-4.146,4.202c-6.818-0.275-13.662-0.259-20.482-0.003c-3.307,0.124-4.246-0.845-4.189-4.165
			c0.201-11.823-0.044-23.654,0.16-35.478c0.057-3.281-0.849-4.211-4.112-4.097c-7.154,0.25-14.325-0.021-21.484,0.13
			c-2.569,0.054-3.526-0.645-3.433-3.342c0.192-5.49,0.215-10.998-0.005-16.486c-0.119-2.974,1.03-3.607,3.757-3.583
			C389.131,65.631,402.291,65.566,415.45,65.566z"/>
		<path style="fill-rule:evenodd;clip-rule:evenodd;fill:#2D6BAD;" d="M171.947,143.982c-1.258-1.205-1.196-2.555-0.243-4.676
			c0.175,1.742,0.283,2.818,0.392,3.896C172.223,143.496,172.174,143.756,171.947,143.982z"/>
		<path style="fill-rule:evenodd;clip-rule:evenodd;fill:#2B6BAC;" d="M172.093,128.806c-0.112,1.072-0.224,2.146-0.404,3.864
			c-0.934-2.101-1.001-3.449,0.26-4.649C172.172,128.25,172.22,128.512,172.093,128.806z"/>
		<path style="fill-rule:evenodd;clip-rule:evenodd;fill:#FBFBFB;" d="M324.433,104.442c2.719-6.779,5.219-13.016,8.108-20.222
			c2.028,6.508,3.732,12.101,5.524,17.664c0.667,2.07-0.077,2.64-2.08,2.585C332.364,104.372,328.738,104.442,324.433,104.442z"/>
	</g>
	<path style="fill:#3970AF;" d="M99.511,56.071c-0.015-20.77,16.762-37.704,37.364-37.716c20.575-0.012,37.604,16.905,37.734,37.484
		c0.132,20.786-16.842,37.814-37.688,37.805C116.181,93.636,99.525,76.908,99.511,56.071z"/>
	<path style="fill:#3970AF;" d="M99.511,135.535c-0.015-20.77,16.762-37.705,37.364-37.717
		c20.575-0.012,37.604,16.905,37.734,37.484c0.132,20.787-16.842,37.814-37.688,37.805C116.181,173.1,99.525,156.371,99.511,135.535
		z"/>
	<path style="fill:#3970AF;" d="M20.511,56.84c-0.015-20.77,16.762-37.704,37.364-37.716c20.575-0.012,37.604,16.905,37.734,37.484
		c0.132,20.786-16.842,37.814-37.688,37.805C37.181,94.404,20.525,77.676,20.511,56.84z"/>
	<path style="fill:#3970AF;" d="M20.511,136.304c-0.015-20.77,16.762-37.705,37.364-37.717
		c20.575-0.012,37.604,16.905,37.734,37.484c0.132,20.787-16.842,37.814-37.688,37.805C37.181,173.868,20.525,157.14,20.511,136.304
		z"/>
</g>
<g>
	<path d="M205.546,142.75l-0.204,5.848h-0.578l-1.462-3.978c-0.068-0.204-0.442-0.402-1.122-0.595
		c-0.68-0.192-1.406-0.289-2.176-0.289c-1.134,0-2.063,0.271-2.788,0.815c-0.816,0.59-1.224,1.429-1.224,2.517
		c0,1.405,0.918,2.572,2.754,3.502c1.677,0.839,3.366,1.678,5.066,2.516c1.836,1.202,2.754,2.822,2.754,4.862
		c0,2.38-1.077,4.193-3.23,5.439c-1.632,0.952-3.468,1.429-5.508,1.429c-3.015,0-5.508-0.374-7.48-1.122l0.204-5.883h0.578
		l1.428,3.877c0.113,0.34,0.612,0.646,1.496,0.918c0.771,0.249,1.451,0.374,2.04,0.374c1.36,0,2.459-0.283,3.298-0.851
		c0.929-0.634,1.394-1.519,1.394-2.652c0-1.359-0.918-2.516-2.754-3.468c-1.677-0.838-3.366-1.677-5.066-2.516
		c-1.836-1.201-2.754-2.754-2.754-4.658c0-4.624,3.207-6.936,9.622-6.936C201.33,141.9,203.234,142.184,205.546,142.75z"/>
	<path d="M225.198,161.076l0.578,0.918c-2.108,1.791-4.59,2.686-7.446,2.686c-2.403,0-4.375-0.804-5.916-2.414
		c-1.542-1.608-2.312-3.615-2.312-6.018c0-2.516,0.867-4.59,2.601-6.222c1.734-1.633,3.871-2.448,6.409-2.448
		c2.063,0,3.819,0.544,5.27,1.632c1.609,1.202,2.414,2.811,2.414,4.828c0,0.68-0.25,1.088-0.748,1.224
		c-0.091,0.023-0.669,0.034-1.734,0.034h-9.044v0.612c0,1.45,0.51,2.822,1.53,4.114c1.178,1.474,2.618,2.21,4.318,2.21
		C222.682,162.232,224.042,161.847,225.198,161.076z M218.534,149.006c-1.065,0-1.904,0.533-2.516,1.598
		c-0.499,0.885-0.748,1.904-0.748,3.061v0.204h1.428c0.793,0,1.7-0.034,2.72-0.103c1.224-0.09,1.892-0.136,2.006-0.136v-0.544
		C221.424,150.366,220.46,149.006,218.534,149.006z"/>
	<path d="M241.858,147.714v4.896h-0.884c-0.408-1.134-1.156-1.7-2.244-1.7c-0.975,0-1.74,0.368-2.295,1.104
		c-0.556,0.737-0.833,1.763-0.833,3.077c0,4.76,0.158,7.254,0.476,7.48c0.68,0.476,1.462,0.884,2.346,1.224v0.477
		c-2.086-0.183-3.831-0.272-5.236-0.272c-1.224,0-2.878,0.09-4.964,0.272v-0.477l2.278-1.088c0.362-0.182,0.544-1.927,0.544-5.236
		c0-3.604-0.057-5.813-0.17-6.63c-0.113-0.725-0.408-1.189-0.884-1.394l-1.768-0.714v-0.477c2.629,0,4.726-0.09,6.29-0.271
		c0.771-0.091,1.201-0.137,1.292-0.137l-0.068,2.958h0.068c1.337-2.152,2.901-3.229,4.692-3.229
		C241.11,147.578,241.563,147.624,241.858,147.714z"/>
	<path d="M255.695,148.462v-0.476c1.677,0.182,2.935,0.271,3.774,0.271c0.68,0,1.7-0.09,3.06-0.271v0.476l-0.782,0.477
		c-0.59,0.362-1.043,0.827-1.36,1.394c-3.015,5.327-5.361,10.109-7.038,14.348h-2.04c-0.204-0.521-2.233-5.247-6.086-14.178
		c-0.295-0.68-0.624-1.133-0.986-1.36l-1.054-0.68v-0.476c2.176,0.182,3.819,0.271,4.93,0.271c0.997,0,2.493-0.09,4.488-0.271v0.476
		l-1.7,0.714c-0.318,0.136-0.476,0.329-0.476,0.578c0,0.227,0.09,0.567,0.272,1.021l3.162,8.058l3.366-7.174
		c0.453-0.975,0.68-1.575,0.68-1.802c0-0.295-0.215-0.533-0.646-0.715L255.695,148.462z"/>
	<path d="M263.48,148.734v-0.477c2.629,0,4.726-0.09,6.29-0.271c0.771-0.091,1.201-0.137,1.292-0.137
		c-0.136,2.04-0.204,4.432-0.204,7.175c0,4.806,0.158,7.321,0.476,7.548c0.68,0.476,1.462,0.884,2.346,1.224v0.477
		c-2.086-0.183-3.831-0.272-5.236-0.272c-1.224,0-2.878,0.09-4.964,0.272v-0.477l2.278-1.088c0.362-0.182,0.544-1.927,0.544-5.236
		c0-2.833,0-4.182,0-4.046c-0.068-2.402-0.272-3.672-0.612-3.808L263.48,148.734z M265.895,143.124c0-0.726,0.255-1.337,0.765-1.836
		c0.51-0.498,1.116-0.748,1.819-0.748c0.725,0,1.337,0.25,1.836,0.748c0.499,0.499,0.748,1.11,0.748,1.836
		c0,0.703-0.25,1.309-0.748,1.819c-0.499,0.51-1.111,0.765-1.836,0.765c-0.703,0-1.309-0.255-1.819-0.765
		C266.149,144.433,265.895,143.827,265.895,143.124z"/>
	<path d="M289.932,148.462l-0.612,5.372h-0.476l-1.7-3.978c-0.182-0.431-0.748-0.646-1.7-0.646c-1.496,0-2.641,0.521-3.434,1.564
		c-0.726,0.93-1.088,2.164-1.088,3.706c0,2.131,0.374,3.898,1.122,5.304c0.929,1.768,2.38,2.651,4.352,2.651
		c0.929,0,2.028-0.306,3.298-0.918l0.51,0.851c-1.247,0.884-2.278,1.474-3.094,1.768c-0.975,0.362-2.21,0.544-3.706,0.544
		c-2.222,0-4.086-0.77-5.593-2.312c-1.508-1.541-2.261-3.435-2.261-5.678c0-2.721,0.952-4.941,2.856-6.664
		c1.836-1.633,4.136-2.448,6.902-2.448C286.396,147.578,287.938,147.873,289.932,148.462z"/>
	<path d="M291.768,148.734v-0.477c2.629,0,4.726-0.09,6.29-0.271c0.771-0.091,1.201-0.137,1.292-0.137
		c-0.136,2.04-0.204,4.432-0.204,7.175c0,4.806,0.158,7.321,0.476,7.548c0.68,0.476,1.462,0.884,2.346,1.224v0.477
		c-2.086-0.183-3.831-0.272-5.236-0.272c-1.224,0-2.878,0.09-4.964,0.272v-0.477l2.278-1.088c0.362-0.182,0.544-1.927,0.544-5.236
		c0-2.833,0-4.182,0-4.046c-0.068-2.402-0.272-3.672-0.612-3.808L291.768,148.734z M294.182,143.124
		c0-0.726,0.255-1.337,0.765-1.836c0.51-0.498,1.116-0.748,1.819-0.748c0.725,0,1.337,0.25,1.836,0.748
		c0.499,0.499,0.748,1.11,0.748,1.836c0,0.703-0.25,1.309-0.748,1.819c-0.499,0.51-1.111,0.765-1.836,0.765
		c-0.703,0-1.309-0.255-1.819-0.765C294.437,144.433,294.182,143.827,294.182,143.124z"/>
	<path d="M313.018,147.578c2.72,0,4.884,0.748,6.494,2.244c1.632,1.563,2.448,3.706,2.448,6.426c0,2.539-0.907,4.602-2.72,6.188
		c-1.746,1.496-3.922,2.244-6.528,2.244c-2.675,0-4.806-0.714-6.392-2.142c-1.655-1.496-2.482-3.559-2.482-6.188
		c0-2.629,0.872-4.748,2.618-6.357C308.201,148.383,310.388,147.578,313.018,147.578z M312.712,149.006
		c-2.335,0-3.502,2.357-3.502,7.072c0,1.723,0.215,3.208,0.646,4.454c0.634,1.813,1.654,2.72,3.06,2.72
		c2.448,0,3.672-2.232,3.672-6.698C316.588,151.522,315.296,149.006,312.712,149.006z"/>
	<path d="M351.438,145.64v2.992c0,5.463,0.102,9.565,0.306,12.309c0.09,1.088,0.283,1.699,0.578,1.836l2.176,1.02v0.477
		c-1.496-0.183-2.664-0.272-3.502-0.272c-0.68,0-1.904,0.09-3.672,0.272l0.102-2.721h-0.068c-1.179,2.086-3.038,3.128-5.576,3.128
		c-2.199,0-4.046-0.85-5.542-2.55c-1.451-1.632-2.176-3.559-2.176-5.78c0-2.425,0.85-4.493,2.55-6.205
		c1.7-1.711,3.774-2.566,6.222-2.566c1.632,0,2.98,0.612,4.046,1.836v-1.904c0-2.47,0.011-3.569,0.034-3.298
		c-0.091-1.7-0.42-2.652-0.986-2.855l-1.7-0.612v-0.477h0.952c1.156,0,2.29-0.033,3.4-0.102c0.77-0.045,1.518-0.113,2.244-0.204
		c0.612-0.068,0.896-0.102,0.85-0.102C351.517,140.812,351.438,142.739,351.438,145.64z M347.051,155.84
		c0-4.42-1.213-6.63-3.638-6.63c-1.474,0-2.55,0.737-3.23,2.21c-0.499,1.088-0.748,2.471-0.748,4.148
		c0,4.851,1.303,7.275,3.91,7.275c1.405,0,2.425-0.872,3.06-2.618C346.835,159.024,347.051,157.563,347.051,155.84z"/>
	<path d="M371.837,161.076l0.578,0.918c-2.108,1.791-4.59,2.686-7.446,2.686c-2.403,0-4.375-0.804-5.916-2.414
		c-1.542-1.608-2.312-3.615-2.312-6.018c0-2.516,0.867-4.59,2.601-6.222c1.734-1.633,3.871-2.448,6.409-2.448
		c2.063,0,3.819,0.544,5.27,1.632c1.609,1.202,2.414,2.811,2.414,4.828c0,0.68-0.25,1.088-0.748,1.224
		c-0.091,0.023-0.669,0.034-1.734,0.034h-9.044v0.612c0,1.45,0.51,2.822,1.53,4.114c1.178,1.474,2.618,2.21,4.318,2.21
		C369.321,162.232,370.681,161.847,371.837,161.076z M365.173,149.006c-1.065,0-1.904,0.533-2.516,1.598
		c-0.499,0.885-0.748,1.904-0.748,3.061v0.204h1.428c0.793,0,1.7-0.034,2.72-0.103c1.224-0.09,1.892-0.136,2.006-0.136v-0.544
		C368.063,150.366,367.099,149.006,365.173,149.006z"/>
	<path d="M411.719,163.796v0.477c-2.811-0.183-4.93-0.272-6.357-0.272c-1.383,0-3.457,0.09-6.223,0.272v-0.477l2.822-1.122
		c0.385-0.158,0.578-0.317,0.578-0.476c0-0.249-0.17-0.861-0.51-1.836l-0.986-2.856h-8.636l-0.884,2.176
		c-0.59,1.451-0.885,2.335-0.885,2.652c0,0.25,0.249,0.465,0.748,0.646l2.313,0.815v0.477c-2.176-0.183-3.82-0.272-4.931-0.272
		c-0.997,0-2.539,0.09-4.624,0.272v-0.477l2.21-0.85c0.499-0.182,1.02-0.816,1.564-1.904c3.785-7.502,6.856-13.951,9.214-19.346
		h2.924c2.131,5.894,4.771,12.127,7.922,18.7c0.748,1.541,1.304,2.392,1.666,2.55L411.719,163.796z M400.159,155.262l-3.23-7.479
		l-3.502,7.479H400.159z"/>
	<path d="M430.793,145.64v2.992c0,5.463,0.102,9.565,0.306,12.309c0.091,1.088,0.283,1.699,0.578,1.836l2.176,1.02v0.477
		c-1.496-0.183-2.663-0.272-3.502-0.272c-0.68,0-1.904,0.09-3.672,0.272l0.103-2.721h-0.068c-1.179,2.086-3.038,3.128-5.576,3.128
		c-2.199,0-4.046-0.85-5.542-2.55c-1.451-1.632-2.176-3.559-2.176-5.78c0-2.425,0.85-4.493,2.55-6.205
		c1.7-1.711,3.774-2.566,6.222-2.566c1.633,0,2.98,0.612,4.046,1.836v-1.904c0-2.47,0.012-3.569,0.034-3.298
		c-0.091-1.7-0.419-2.652-0.985-2.855l-1.7-0.612v-0.477h0.952c1.155,0,2.289-0.033,3.399-0.102
		c0.771-0.045,1.519-0.113,2.244-0.204c0.612-0.068,0.896-0.102,0.851-0.102C430.872,140.812,430.793,142.739,430.793,145.64z
		 M426.407,155.84c0-4.42-1.213-6.63-3.639-6.63c-1.474,0-2.55,0.737-3.229,2.21c-0.499,1.088-0.748,2.471-0.748,4.148
		c0,4.851,1.303,7.275,3.91,7.275c1.404,0,2.425-0.872,3.06-2.618C426.191,159.024,426.407,157.563,426.407,155.84z"/>
	<path d="M435.179,164.272v-0.477l1.802-0.85c0.566-0.272,0.906-1.11,1.021-2.517c0-0.067,0-1.054,0-2.958
		c0-3.195,0.011-4.624,0.033-4.283c-0.091-2.244-0.386-3.469-0.884-3.673l-1.972-0.781v-0.477c2.538,0,4.59-0.09,6.153-0.271
		c0.771-0.091,1.201-0.137,1.292-0.137l-0.067,2.958h0.067c0.703-1.02,1.633-1.813,2.788-2.38c1.156-0.566,2.357-0.85,3.604-0.85
		c1.27,0,2.295,0.238,3.077,0.714s1.399,1.314,1.853,2.516c1.745-2.176,3.876-3.252,6.393-3.229c1.632,0,2.912,0.425,3.842,1.274
		c0.929,0.851,1.394,2.058,1.394,3.621c0,0.635,0,1.383,0,2.244c-0.022,0.884-0.034,1.485-0.034,1.802c0,2.607-0.011,3.74-0.033,3.4
		c0.09,1.723,0.419,2.72,0.985,2.992l1.87,0.884v0.477c-2.086-0.183-3.74-0.272-4.964-0.272c-1.11,0-2.8,0.09-5.066,0.272v-0.477
		l1.599-0.748c0.476-0.227,0.748-0.51,0.815-0.85c0.159-0.906,0.238-2.471,0.238-4.692v-3.06c0-2.811-0.997-4.216-2.992-4.216
		c-1.134,0-2.073,0.356-2.821,1.07s-1.122,1.695-1.122,2.941v3.264c0,1.882,0,2.834,0,2.856c0.067,1.474,0.283,2.301,0.646,2.481
		l2.006,0.952v0.477c-2.267-0.183-3.955-0.272-5.065-0.272c-0.93,0-2.528,0.09-4.794,0.272v-0.477l1.598-0.748
		c0.476-0.227,0.748-0.51,0.816-0.85c0.158-0.906,0.237-2.471,0.237-4.692v-3.06c0-2.811-0.997-4.216-2.991-4.216
		c-1.134,0-2.074,0.356-2.822,1.07s-1.122,1.695-1.122,2.941v3.264c0,1.882,0,2.834,0,2.856c0.067,1.474,0.283,2.301,0.646,2.481
		l2.007,0.952v0.477c-2.268-0.183-3.956-0.272-5.066-0.272C438.919,164,437.264,164.09,435.179,164.272z"/>
	<path d="M469.314,148.734v-0.477c2.629,0,4.726-0.09,6.29-0.271c0.771-0.091,1.201-0.137,1.292-0.137
		c-0.136,2.04-0.204,4.432-0.204,7.175c0,4.806,0.158,7.321,0.477,7.548c0.68,0.476,1.462,0.884,2.346,1.224v0.477
		c-2.086-0.183-3.831-0.272-5.236-0.272c-1.224,0-2.879,0.09-4.964,0.272v-0.477l2.278-1.088c0.362-0.182,0.544-1.927,0.544-5.236
		c0-2.833,0-4.182,0-4.046c-0.068-2.402-0.272-3.672-0.612-3.808L469.314,148.734z M471.729,143.124
		c0-0.726,0.255-1.337,0.765-1.836c0.511-0.498,1.116-0.748,1.819-0.748c0.726,0,1.337,0.25,1.836,0.748
		c0.498,0.499,0.748,1.11,0.748,1.836c0,0.703-0.25,1.309-0.748,1.819c-0.499,0.51-1.11,0.765-1.836,0.765
		c-0.703,0-1.309-0.255-1.819-0.765C471.983,144.433,471.729,143.827,471.729,143.124z"/>
	<path d="M480.467,164.272v-0.477l1.802-0.85c0.566-0.272,0.906-1.11,1.021-2.517c0-0.067,0-1.054,0-2.958
		c0-3.195,0.011-4.624,0.033-4.283c-0.091-2.244-0.386-3.469-0.884-3.673l-1.972-0.781v-0.477c2.538,0,4.59-0.09,6.153-0.271
		c0.771-0.091,1.201-0.137,1.292-0.137l-0.067,2.958h0.067c0.703-1.02,1.633-1.813,2.788-2.38c1.156-0.566,2.357-0.85,3.604-0.85
		c1.632,0,2.912,0.42,3.842,1.258c0.93,0.839,1.395,2.052,1.395,3.638c0,0.635,0,1.383,0,2.244
		c-0.023,0.884-0.034,1.485-0.034,1.802c0,2.607-0.012,3.74-0.034,3.4c0.09,1.723,0.419,2.72,0.986,2.992l1.869,0.884v0.477
		c-2.085-0.183-3.739-0.272-4.964-0.272c-1.11,0-2.8,0.09-5.065,0.272v-0.477l1.598-0.748c0.477-0.227,0.748-0.51,0.816-0.85
		c0.158-0.906,0.237-2.471,0.237-4.692v-3.06c0-2.811-1.054-4.216-3.161-4.216c-1.134,0-2.074,0.356-2.822,1.07
		s-1.122,1.695-1.122,2.941v3.264c0,1.882,0,2.834,0,2.856c0.067,1.474,0.283,2.301,0.646,2.481l2.007,0.952v0.477
		c-2.268-0.183-3.956-0.272-5.066-0.272C484.207,164,482.552,164.09,480.467,164.272z"/>
	<path d="M503.28,148.734v-0.477c2.629,0,4.726-0.09,6.29-0.271c0.771-0.091,1.201-0.137,1.292-0.137
		c-0.136,2.04-0.204,4.432-0.204,7.175c0,4.806,0.158,7.321,0.477,7.548c0.68,0.476,1.462,0.884,2.346,1.224v0.477
		c-2.086-0.183-3.831-0.272-5.236-0.272c-1.224,0-2.879,0.09-4.964,0.272v-0.477l2.278-1.088c0.362-0.182,0.544-1.927,0.544-5.236
		c0-2.833,0-4.182,0-4.046c-0.068-2.402-0.272-3.672-0.612-3.808L503.28,148.734z M505.694,143.124c0-0.726,0.255-1.337,0.765-1.836
		c0.511-0.498,1.116-0.748,1.819-0.748c0.726,0,1.337,0.25,1.836,0.748c0.498,0.499,0.748,1.11,0.748,1.836
		c0,0.703-0.25,1.309-0.748,1.819c-0.499,0.51-1.11,0.765-1.836,0.765c-0.703,0-1.309-0.255-1.819-0.765
		C505.949,144.433,505.694,143.827,505.694,143.124z"/>
	<path d="M515.485,164.272l0.408-4.896h0.476l1.326,3.468c0.158,0.272,0.986,0.408,2.482,0.408c0.861,0,1.586-0.158,2.176-0.476
		c0.771-0.386,1.156-0.975,1.156-1.769c0-0.861-0.681-1.654-2.04-2.38c-1.27-0.657-2.55-1.314-3.843-1.972
		c-1.359-0.952-2.039-2.153-2.039-3.604c0-1.541,0.589-2.839,1.768-3.893s2.708-1.581,4.59-1.581c1.745,0,3.241,0.227,4.488,0.68
		l-0.204,4.284h-0.476l-1.326-2.822c-0.159-0.34-0.816-0.51-1.973-0.51c-1.813,0-2.72,0.714-2.72,2.142
		c0,0.907,0.691,1.724,2.074,2.448c1.269,0.681,2.538,1.349,3.808,2.006c1.383,0.976,2.063,2.233,2.04,3.774
		c-0.046,3.4-2.845,5.1-8.397,5.1C517.786,164.68,516.527,164.544,515.485,164.272z"/>
	<path d="M529.663,149.686v-1.224h0.034c0.702,0,1.677-0.408,2.924-1.224c1.541-0.975,2.55-2.108,3.026-3.4h1.666
		c0,0.34-0.012,0.884-0.034,1.632c-0.023,0.748-0.034,1.349-0.034,1.803v0.985h4.658v1.428h-4.658v10.166
		c0,1.724,0.51,2.584,1.53,2.584c0.929,0,2.085-0.725,3.468-2.176l0.918,0.816c-1.11,1.292-2.12,2.198-3.026,2.72
		c-1.088,0.589-2.414,0.884-3.978,0.884c-1.134,0-2.057-0.362-2.771-1.088c-0.714-0.725-1.07-1.654-1.07-2.788
		c0-0.544,0.028-1.643,0.085-3.298c0.056-1.654,0.085-3.015,0.085-4.08v-3.74H529.663z"/>
	<path d="M557.78,147.714v4.896h-0.884c-0.408-1.134-1.156-1.7-2.244-1.7c-0.975,0-1.739,0.368-2.295,1.104
		c-0.556,0.737-0.833,1.763-0.833,3.077c0,4.76,0.158,7.254,0.477,7.48c0.68,0.476,1.462,0.884,2.346,1.224v0.477
		c-2.086-0.183-3.831-0.272-5.236-0.272c-1.224,0-2.879,0.09-4.964,0.272v-0.477l2.278-1.088c0.362-0.182,0.544-1.927,0.544-5.236
		c0-3.604-0.057-5.813-0.17-6.63c-0.114-0.725-0.408-1.189-0.885-1.394l-1.768-0.714v-0.477c2.629,0,4.726-0.09,6.29-0.271
		c0.771-0.091,1.201-0.137,1.292-0.137l-0.068,2.958h0.068c1.337-2.152,2.901-3.229,4.692-3.229
		C557.032,147.578,557.485,147.624,557.78,147.714z"/>
	<path d="M561.962,152.406l-1.292-1.088c2.086-2.493,4.533-3.74,7.345-3.74c1.836,0,3.32,0.386,4.453,1.156
		c1.314,0.906,1.973,2.232,1.973,3.978c0,1.111-0.029,2.511-0.085,4.199c-0.057,1.688-0.085,2.669-0.085,2.94
		c0,1.202,0.034,1.955,0.102,2.262c0.068,0.306,0.249,0.526,0.544,0.663l2.108,1.02v0.477c-1.496-0.183-2.618-0.272-3.366-0.272
		c-0.839,0-2.097,0.09-3.774,0.272l0.103-2.347h-0.068c-1.405,1.836-3.229,2.754-5.474,2.754c-1.383,0-2.539-0.413-3.468-1.24
		c-0.93-0.827-1.395-1.955-1.395-3.384c0-2.13,1.088-3.683,3.265-4.657c1.586-0.703,3.638-1.055,6.153-1.055h0.884v-1.292
		c0-0.974-0.306-1.722-0.918-2.244c-0.611-0.521-1.428-0.781-2.447-0.781C564.704,150.026,563.187,150.819,561.962,152.406z
		 M569.884,155.772h-0.747c-1.36,0-2.46,0.294-3.299,0.884c-0.997,0.702-1.496,1.723-1.496,3.06c0,0.703,0.222,1.298,0.663,1.785
		c0.442,0.487,1.015,0.731,1.718,0.731c0.951,0,1.745-0.465,2.38-1.395c0.521-0.771,0.781-1.53,0.781-2.278V155.772z"/>
	<path d="M593.311,148.462l-0.612,5.372h-0.476l-1.7-3.978c-0.182-0.431-0.748-0.646-1.7-0.646c-1.496,0-2.641,0.521-3.434,1.564
		c-0.726,0.93-1.088,2.164-1.088,3.706c0,2.131,0.374,3.898,1.122,5.304c0.929,1.768,2.38,2.651,4.352,2.651
		c0.93,0,2.028-0.306,3.298-0.918l0.511,0.851c-1.247,0.884-2.278,1.474-3.095,1.768c-0.975,0.362-2.21,0.544-3.706,0.544
		c-2.222,0-4.086-0.77-5.593-2.312c-1.508-1.541-2.261-3.435-2.261-5.678c0-2.721,0.952-4.941,2.855-6.664
		c1.836-1.633,4.137-2.448,6.902-2.448C589.774,147.578,591.315,147.873,593.311,148.462z"/>
	<path d="M595.146,148.734v-0.477c2.629,0,4.726-0.09,6.29-0.271c0.771-0.091,1.201-0.137,1.292-0.137
		c-0.136,2.04-0.204,4.432-0.204,7.175c0,4.806,0.158,7.321,0.477,7.548c0.68,0.476,1.462,0.884,2.346,1.224v0.477
		c-2.086-0.183-3.831-0.272-5.236-0.272c-1.224,0-2.879,0.09-4.964,0.272v-0.477l2.278-1.088c0.362-0.182,0.544-1.927,0.544-5.236
		c0-2.833,0-4.182,0-4.046c-0.068-2.402-0.272-3.672-0.612-3.808L595.146,148.734z M597.561,143.124
		c0-0.726,0.255-1.337,0.765-1.836c0.511-0.498,1.116-0.748,1.819-0.748c0.726,0,1.337,0.25,1.836,0.748
		c0.498,0.499,0.748,1.11,0.748,1.836c0,0.703-0.25,1.309-0.748,1.819c-0.499,0.51-1.11,0.765-1.836,0.765
		c-0.703,0-1.309-0.255-1.819-0.765C597.815,144.433,597.561,143.827,597.561,143.124z"/>
	<path d="M616.396,147.578c2.72,0,4.885,0.748,6.494,2.244c1.632,1.563,2.448,3.706,2.448,6.426c0,2.539-0.907,4.602-2.721,6.188
		c-1.745,1.496-3.921,2.244-6.527,2.244c-2.675,0-4.806-0.714-6.393-2.142c-1.654-1.496-2.481-3.559-2.481-6.188
		c0-2.629,0.872-4.748,2.618-6.357C611.579,148.383,613.766,147.578,616.396,147.578z M616.09,149.006
		c-2.335,0-3.502,2.357-3.502,7.072c0,1.723,0.215,3.208,0.646,4.454c0.635,1.813,1.654,2.72,3.061,2.72
		c2.447,0,3.672-2.232,3.672-6.698C619.966,151.522,618.674,149.006,616.09,149.006z M613.573,145.98l4.08-4.658
		c0.544-0.612,0.906-0.997,1.088-1.156c0.431-0.317,0.918-0.476,1.463-0.476c0.407,0,0.753,0.158,1.036,0.476
		s0.426,0.703,0.426,1.156c0,0.476-0.284,0.896-0.851,1.258l-5.168,3.4H613.573z"/>
	<path d="M627.071,164.272v-0.477l1.802-0.85c0.566-0.272,0.906-1.11,1.021-2.517c0-0.067,0-1.054,0-2.958
		c0-3.195,0.011-4.624,0.033-4.283c-0.091-2.244-0.386-3.469-0.884-3.673l-1.972-0.781v-0.477c2.538,0,4.59-0.09,6.153-0.271
		c0.771-0.091,1.201-0.137,1.292-0.137l-0.067,2.958h0.067c0.703-1.02,1.633-1.813,2.788-2.38c1.156-0.566,2.357-0.85,3.604-0.85
		c1.632,0,2.912,0.42,3.842,1.258c0.93,0.839,1.395,2.052,1.395,3.638c0,0.635,0,1.383,0,2.244
		c-0.023,0.884-0.034,1.485-0.034,1.802c0,2.607-0.012,3.74-0.034,3.4c0.09,1.723,0.419,2.72,0.986,2.992l1.869,0.884v0.477
		c-2.085-0.183-3.739-0.272-4.964-0.272c-1.11,0-2.8,0.09-5.065,0.272v-0.477l1.598-0.748c0.477-0.227,0.748-0.51,0.816-0.85
		c0.158-0.906,0.237-2.471,0.237-4.692v-3.06c0-2.811-1.054-4.216-3.161-4.216c-1.134,0-2.074,0.356-2.822,1.07
		s-1.122,1.695-1.122,2.941v3.264c0,1.882,0,2.834,0,2.856c0.067,1.474,0.283,2.301,0.646,2.481l2.007,0.952v0.477
		c-2.268-0.183-3.956-0.272-5.066-0.272C630.812,164,629.156,164.09,627.071,164.272z"/>
	<path d="M663.621,164.272v-0.477l2.788-1.088c0.589-0.227,0.918-0.623,0.985-1.19c0.113-0.884,0.171-2.231,0.171-4.046v-8.228
		c0-0.498-0.018-1.229-0.052-2.193c-0.034-0.963-0.051-1.683-0.051-2.159h-2.754c-1.587,0-2.545,0.046-2.873,0.137
		c-0.329,0.091-0.595,0.407-0.799,0.952l-1.021,2.651h-0.476v-6.188c4.216,0.182,7.752,0.271,10.608,0.271
		c2.356,0,5.893-0.09,10.607-0.271v6.188h-0.476l-1.021-2.651c-0.204-0.545-0.471-0.861-0.799-0.952
		c-0.329-0.091-1.287-0.137-2.873-0.137h-2.754c-0.068,2.856-0.102,4.308-0.102,4.353v7.208c0,3.514,0.124,5.439,0.374,5.78
		c0.112,0.182,0.498,0.396,1.155,0.646l2.414,0.918v0.477c-3.264-0.183-5.439-0.272-6.527-0.272
		C669.061,164,666.885,164.09,663.621,164.272z"/>
	<path d="M693.813,147.714v4.896h-0.884c-0.408-1.134-1.156-1.7-2.244-1.7c-0.975,0-1.739,0.368-2.295,1.104
		c-0.556,0.737-0.833,1.763-0.833,3.077c0,4.76,0.158,7.254,0.477,7.48c0.68,0.476,1.462,0.884,2.346,1.224v0.477
		c-2.086-0.183-3.831-0.272-5.236-0.272c-1.224,0-2.879,0.09-4.964,0.272v-0.477l2.278-1.088c0.362-0.182,0.544-1.927,0.544-5.236
		c0-3.604-0.057-5.813-0.17-6.63c-0.114-0.725-0.408-1.189-0.885-1.394l-1.768-0.714v-0.477c2.629,0,4.726-0.09,6.29-0.271
		c0.771-0.091,1.201-0.137,1.292-0.137l-0.068,2.958h0.068c1.337-2.152,2.901-3.229,4.692-3.229
		C693.065,147.578,693.519,147.624,693.813,147.714z"/>
	<path d="M695.274,148.734v-0.477c2.629,0,4.726-0.09,6.29-0.271c0.771-0.091,1.201-0.137,1.292-0.137
		c-0.136,2.04-0.204,4.432-0.204,7.175c0,4.806,0.158,7.321,0.477,7.548c0.68,0.476,1.462,0.884,2.346,1.224v0.477
		c-2.086-0.183-3.831-0.272-5.236-0.272c-1.224,0-2.879,0.09-4.964,0.272v-0.477l2.278-1.088c0.362-0.182,0.544-1.927,0.544-5.236
		c0-2.833,0-4.182,0-4.046c-0.068-2.402-0.272-3.672-0.612-3.808L695.274,148.734z M697.688,143.124
		c0-0.726,0.255-1.337,0.765-1.836c0.511-0.498,1.116-0.748,1.819-0.748c0.726,0,1.337,0.25,1.836,0.748
		c0.498,0.499,0.748,1.11,0.748,1.836c0,0.703-0.25,1.309-0.748,1.819c-0.499,0.51-1.11,0.765-1.836,0.765
		c-0.703,0-1.309-0.255-1.819-0.765C697.943,144.433,697.688,143.827,697.688,143.124z"/>
	<path d="M706.291,140.744v-0.477h0.951c1.156,0,2.289-0.033,3.4-0.102c0.771-0.045,1.519-0.113,2.244-0.204
		c0.612-0.068,0.895-0.102,0.85-0.102c-0.204,0.906-0.306,2.89-0.306,5.949v3.435c1.178-1.11,2.686-1.666,4.521-1.666
		c2.267,0,4.086,0.765,5.457,2.295s2.058,3.519,2.058,5.967c0,2.675-0.851,4.817-2.55,6.426c-1.7,1.61-3.843,2.414-6.427,2.414
		c-3.195,0-5.848-0.487-7.956-1.462c0.227-1.949,0.341-3.966,0.341-6.052v-7.208c0-3.105-0.058-5.213-0.171-6.324
		c-0.158-1.359-0.476-2.13-0.951-2.312L706.291,140.744z M720.095,156.758c0-5.032-1.19-7.548-3.57-7.548
		c-2.063,0-3.094,1.768-3.094,5.304c0,3.627,0.136,6.12,0.408,7.48c0.566,0.975,1.462,1.462,2.686,1.462
		C718.904,163.456,720.095,161.224,720.095,156.758z"/>
	<path d="M746.104,151.726v9.656c0,0.884,0.238,1.428,0.715,1.632l1.802,0.782v0.477c-1.769-0.183-3.105-0.272-4.012-0.272
		c-0.681,0-1.678,0.09-2.992,0.272l0.102-2.925h-0.067c-1.724,2.222-3.865,3.332-6.427,3.332c-3.445,0-5.168-1.552-5.168-4.657
		c0-0.612,0.018-1.439,0.052-2.482c0.033-1.042,0.051-1.824,0.051-2.346c0-2.697-0.103-4.387-0.307-5.066
		c-0.091-0.317-0.306-0.544-0.646-0.68l-1.87-0.714v-0.477c2.538,0,4.59-0.09,6.154-0.271c0.771-0.091,1.201-0.137,1.292-0.137
		c-0.046,1.678-0.068,2.97-0.068,3.876v6.767c0,2.493,1.042,3.74,3.128,3.74c1.11,0,2.006-0.437,2.687-1.31
		c0.68-0.872,1.02-2.045,1.02-3.519v-2.21c0-2.697-0.102-4.387-0.306-5.066c-0.091-0.317-0.307-0.544-0.646-0.68l-1.87-0.714v-0.477
		c2.539,0,4.591-0.09,6.154-0.271c0.771-0.091,1.201-0.137,1.292-0.137C746.126,149.527,746.104,150.819,746.104,151.726z"/>
	<path d="M750.014,149.686v-1.224h0.034c0.702,0,1.677-0.408,2.924-1.224c1.541-0.975,2.55-2.108,3.026-3.4h1.666
		c0,0.34-0.012,0.884-0.034,1.632c-0.023,0.748-0.034,1.349-0.034,1.803v0.985h4.658v1.428h-4.658v10.166
		c0,1.724,0.51,2.584,1.53,2.584c0.929,0,2.085-0.725,3.468-2.176l0.918,0.816c-1.11,1.292-2.12,2.198-3.026,2.72
		c-1.088,0.589-2.414,0.884-3.978,0.884c-1.134,0-2.057-0.362-2.771-1.088c-0.714-0.725-1.07-1.654-1.07-2.788
		c0-0.544,0.028-1.643,0.085-3.298c0.056-1.654,0.085-3.015,0.085-4.08v-3.74H750.014z"/>
	<path d="M767.218,152.406l-1.292-1.088c2.086-2.493,4.533-3.74,7.345-3.74c1.836,0,3.32,0.386,4.453,1.156
		c1.314,0.906,1.973,2.232,1.973,3.978c0,1.111-0.029,2.511-0.085,4.199c-0.057,1.688-0.085,2.669-0.085,2.94
		c0,1.202,0.034,1.955,0.102,2.262c0.068,0.306,0.249,0.526,0.544,0.663l2.108,1.02v0.477c-1.496-0.183-2.618-0.272-3.366-0.272
		c-0.839,0-2.097,0.09-3.774,0.272l0.103-2.347h-0.068c-1.405,1.836-3.229,2.754-5.474,2.754c-1.383,0-2.539-0.413-3.468-1.24
		c-0.93-0.827-1.395-1.955-1.395-3.384c0-2.13,1.088-3.683,3.265-4.657c1.586-0.703,3.638-1.055,6.153-1.055h0.884v-1.292
		c0-0.974-0.306-1.722-0.918-2.244c-0.611-0.521-1.428-0.781-2.447-0.781C769.96,150.026,768.442,150.819,767.218,152.406z
		 M775.14,155.772h-0.747c-1.36,0-2.46,0.294-3.299,0.884c-0.997,0.702-1.496,1.723-1.496,3.06c0,0.703,0.222,1.298,0.663,1.785
		c0.442,0.487,1.015,0.731,1.718,0.731c0.951,0,1.745-0.465,2.38-1.395c0.521-0.771,0.781-1.53,0.781-2.278V155.772z"/>
	<path d="M797.035,147.714v4.896h-0.884c-0.408-1.134-1.156-1.7-2.244-1.7c-0.975,0-1.739,0.368-2.295,1.104
		c-0.556,0.737-0.833,1.763-0.833,3.077c0,4.76,0.158,7.254,0.477,7.48c0.68,0.476,1.462,0.884,2.346,1.224v0.477
		c-2.086-0.183-3.831-0.272-5.236-0.272c-1.224,0-2.879,0.09-4.964,0.272v-0.477l2.278-1.088c0.362-0.182,0.544-1.927,0.544-5.236
		c0-3.604-0.057-5.813-0.17-6.63c-0.114-0.725-0.408-1.189-0.885-1.394l-1.768-0.714v-0.477c2.629,0,4.726-0.09,6.29-0.271
		c0.771-0.091,1.201-0.137,1.292-0.137l-0.068,2.958h0.068c1.337-2.152,2.901-3.229,4.692-3.229
		C796.287,147.578,796.74,147.624,797.035,147.714z"/>
	<path d="M798.497,148.734v-0.477c2.629,0,4.726-0.09,6.29-0.271c0.771-0.091,1.201-0.137,1.292-0.137
		c-0.136,2.04-0.204,4.432-0.204,7.175c0,4.806,0.158,7.321,0.477,7.548c0.68,0.476,1.462,0.884,2.346,1.224v0.477
		c-2.086-0.183-3.831-0.272-5.236-0.272c-1.224,0-2.879,0.09-4.964,0.272v-0.477l2.278-1.088c0.362-0.182,0.544-1.927,0.544-5.236
		c0-2.833,0-4.182,0-4.046c-0.068-2.402-0.272-3.672-0.612-3.808L798.497,148.734z M800.911,143.124
		c0-0.726,0.255-1.337,0.765-1.836c0.511-0.498,1.116-0.748,1.819-0.748c0.726,0,1.337,0.25,1.836,0.748
		c0.498,0.499,0.748,1.11,0.748,1.836c0,0.703-0.25,1.309-0.748,1.819c-0.499,0.51-1.11,0.765-1.836,0.765
		c-0.703,0-1.309-0.255-1.819-0.765C801.166,144.433,800.911,143.827,800.911,143.124z"/>
	<path d="M812.504,152.406l-1.292-1.088c2.086-2.493,4.533-3.74,7.345-3.74c1.836,0,3.32,0.386,4.453,1.156
		c1.314,0.906,1.973,2.232,1.973,3.978c0,1.111-0.029,2.511-0.085,4.199c-0.057,1.688-0.085,2.669-0.085,2.94
		c0,1.202,0.034,1.955,0.102,2.262c0.068,0.306,0.249,0.526,0.544,0.663l2.108,1.02v0.477C826.07,164.09,824.948,164,824.2,164
		c-0.839,0-2.097,0.09-3.774,0.272l0.103-2.347h-0.068c-1.405,1.836-3.229,2.754-5.474,2.754c-1.383,0-2.539-0.413-3.468-1.24
		c-0.93-0.827-1.395-1.955-1.395-3.384c0-2.13,1.088-3.683,3.265-4.657c1.586-0.703,3.638-1.055,6.153-1.055h0.884v-1.292
		c0-0.974-0.306-1.722-0.918-2.244c-0.611-0.521-1.428-0.781-2.447-0.781C815.246,150.026,813.729,150.819,812.504,152.406z
		 M820.426,155.772h-0.747c-1.36,0-2.46,0.294-3.299,0.884c-0.997,0.702-1.496,1.723-1.496,3.06c0,0.703,0.222,1.298,0.663,1.785
		c0.442,0.487,1.015,0.731,1.718,0.731c0.951,0,1.745-0.465,2.38-1.395c0.521-0.771,0.781-1.53,0.781-2.278V155.772z"/>
</g>
</svg>
